<svg width="147" height="33"
  xmlns="http://www.w3.org/2000/svg">
  <path d="M2.8 19v-3.3h11.3l-.5.8v-.4a3.4 3.4 0 0 0-1.8-3.1c-.5-.4-1.3-.6-2.3-.6-.9 0-1.7.2-2.4.6-.7.4-1.2 1-1.5 1.7S5 16.4 5 17.4c0 1.1.2 2 .6 2.8.3.8.8 1.4 1.5 1.8a5 5 0 0 0 2.6.6c.6 0 1.2 0 1.7-.2l1.2-.4.7-.7.2-.7h5c-.1.8-.4 1.5-.8 2.1-.4.7-1 1.4-1.8 1.9a9 9 0 0 1-2.7 1.3c-1.1.3-2.3.5-3.7.5-2 0-3.6-.4-5-1.1A8.1 8.1 0 0 1 1.4 22a9 9 0 0 1-1.1-4.6 9 9 0 0 1 1-4.4 8.1 8.1 0 0 1 3.3-3.1c1.4-.7 3-1.1 4.9-1.1 1.9 0 3.5.4 4.9 1.1a7.9 7.9 0 0 1 3.2 3.2 9.6 9.6 0 0 1 1 5.4v.6H2.8Zm25.6 7.4c-1.4 0-2.7-.4-3.9-1a7.5 7.5 0 0 1-2.9-3c-.7-1.4-1-3-1-5 0-1.8.3-3.4 1-4.7a7.7 7.7 0 0 1 3-3 7.7 7.7 0 0 1 3.8-1 7 7 0 0 1 3.7 1 8 8 0 0 1 2.7 2.8 8 8 0 0 1 1 4v.4h-2.1v-.2c0-.8-.2-1.5-.6-2a4 4 0 0 0-1.5-1.4 4 4 0 0 0-2-.5 4 4 0 0 0-2.8 1.1c-.8.8-1.2 2-1.2 3.5S26 20.2 27 21a4 4 0 0 0 2.8 1 4 4 0 0 0 2-.4 3.9 3.9 0 0 0 1.4-1.4c.4-.6.6-1.3.6-2.1l2.1.1c0 1.5-.3 3-1 4.1a7.9 7.9 0 0 1-2.6 3 6.7 6.7 0 0 1-3.8 1Zm5.3 6.6V9h5v24h-5ZM48 26.3c-1.2 0-2.2-.2-3-.6-.7-.4-1.4-.9-1.8-1.5a6.4 6.4 0 0 1-1-2.2 11.3 11.3 0 0 1-.2-2.5V9h5v9.2c0 .7 0 1.3.2 2 .1.5.4 1 .9 1.4s1 .5 1.8.5a3 3 0 0 0 2-.6c.5-.5 1-1 1.3-1.7a5.5 5.5 0 0 0 .4-2.2l1.4 1.2a8.8 8.8 0 0 1-.5 3A7.4 7.4 0 0 1 53 24a6.2 6.2 0 0 1-2.2 1.6 7 7 0 0 1-2.9.6Zm5.6-.3V9h5v17h-5Zm14 .4c-1.3 0-2.4-.2-3.3-.6a4.7 4.7 0 0 1-3.1-4.5c0-1.2.3-2.2 1-3 .6-.7 1.5-1.3 2.6-1.7 1.1-.4 2.3-.6 3.6-.7l3.8-.5c.7-.2 1.1-.5 1.1-.8 0-.7-.3-1.2-.9-1.5-.6-.4-1.4-.6-2.5-.6-1.2 0-2 .2-2.6.6-.6.4-1 1-1 2h-4.8c0-1.5.3-2.6 1-3.5a7 7 0 0 1 3.1-2.2 12 12 0 0 1 4.3-.7c1.5 0 2.9.2 4.2.7a7 7 0 0 1 3 2c.8 1 1.2 2 1.2 3.5v7.3a18.7 18.7 0 0 0 .2 2.4 3.4 3.4 0 0 0 .8 1.4h-4.9a3.4 3.4 0 0 1-.3-.5 3.6 3.6 0 0 1-.4-.8 6.6 6.6 0 0 1-.3-1.1 8.8 8.8 0 0 1 0-1.3l1 .7c-.4.7-.8 1.3-1.5 1.8s-1.5.9-2.4 1.1c-.9.3-1.9.5-3 .5Zm1.3-3.8c.8 0 1.5-.1 2.2-.4a3.8 3.8 0 0 0 1.6-1.3 4 4 0 0 0 .7-2.4v-1.7l1.2 1.2a14.8 14.8 0 0 1-2.4.6l-2.8.4c-1 .1-1.9.3-2.4.6-.6.2-.8.7-.8 1.3 0 .6.2 1 .7 1.3.4.3 1 .4 2 .4ZM86.6 1v25h-4.9V1zm3.3 25V9h5v17h-5Zm2.5-19.8c-.8 0-1.5-.2-2-.6a2 2 0 0 1-.9-1.7c0-.7.3-1.3.9-1.7.5-.4 1.2-.6 2-.6.7 0 1.4.2 2 .6.6.4.8 1 .8 1.7s-.2 1.3-.8 1.7c-.6.4-1.3.6-2 .6Zm10 16h9.2V26H97.1v-3.7l9-9.6v.2h-8.7V9h14v3.7l-9 9.6zm13.1-3.2v-3.3h11.3l-.5.8v-.4a3.4 3.4 0 0 0-1.8-3.1 4 4 0 0 0-2.3-.6c-1 0-1.7.2-2.4.6-.7.4-1.2 1-1.6 1.7s-.5 1.7-.5 2.7c0 1.1.2 2 .5 2.8a4 4 0 0 0 1.6 1.8 5 5 0 0 0 2.6.6c.6 0 1.2 0 1.7-.2l1.1-.4c.3-.2.6-.4.7-.7.2-.2.3-.4.3-.7h5c-.1.8-.4 1.5-.8 2.1-.4.7-1 1.4-1.8 1.9a9 9 0 0 1-2.8 1.3c-1 .3-2.3.5-3.7.5a11 11 0 0 1-4.9-1.1A8.1 8.1 0 0 1 114 22a9 9 0 0 1-1.2-4.6A9 9 0 0 1 114 13a8.1 8.1 0 0 1 3.3-3.1c1.4-.7 3-1.1 4.9-1.1 1.8 0 3.5.4 4.9 1.1a7.9 7.9 0 0 1 3.1 3.2 9.6 9.6 0 0 1 1.1 5.4v.6h-15.8Zm18.5 7V9h5v6l-1-.7a8 8 0 0 1 .6-2.2 6 6 0 0 1 1.2-1.7 5.2 5.2 0 0 1 1.7-1.2 6 6 0 0 1 2.4-.4 6.6 6.6 0 0 1 2.3.4l-.8 4.4a5.3 5.3 0 0 0-.6-.2c-.4-.2-.8-.2-1.3-.2-.9 0-1.6.1-2.2.4a3.8 3.8 0 0 0-1.4 1.2c-.3.4-.5 1-.7 1.5a7 7 0 0 0-.2 1.8v8h-5Z" fill="#191826"/>
</svg>